<svg xmlns="http://www.w3.org/2000/svg" width="32" height="32" viewBox="0 0 32 32" id="favicon-32">
                        <defs>
                            <linearGradient id="iconGrad" x1="0%" y1="0%" x2="100%" y2="100%">
                                <stop offset="0%" style="stop-color:#e74c3c;stop-opacity:1"/>
                                <stop offset="100%" style="stop-color:#c0392b;stop-opacity:1"/>
                            </linearGradient>
                        </defs>
                        
                        <g transform="translate(16,16)">
                            <!-- Central hub -->
                            <circle cx="0" cy="0" r="2.4" fill="url(#iconGrad)"/>
                            <rect x="-1.2" y="2.4" width="2.4" height="4.8" rx="0.6" fill="url(#iconGrad)"/>
                            
                            <!-- 8 people -->
                            <circle cx="0" cy="-11.2" r="1.8" fill="url(#iconGrad)" opacity="0.9"/>
                            <circle cx="8" cy="-8" r="1.8" fill="url(#iconGrad)" opacity="0.9"/>
                            <circle cx="11.2" cy="0" r="1.8" fill="url(#iconGrad)" opacity="0.9"/>
                            <circle cx="8" cy="8" r="1.8" fill="url(#iconGrad)" opacity="0.9"/>
                            <circle cx="0" cy="11.2" r="1.8" fill="url(#iconGrad)" opacity="0.9"/>
                            <circle cx="-8" cy="8" r="1.8" fill="url(#iconGrad)" opacity="0.9"/>
                            <circle cx="-11.2" cy="0" r="1.8" fill="url(#iconGrad)" opacity="0.9"/>
                            <circle cx="-8" cy="-8" r="1.8" fill="url(#iconGrad)" opacity="0.9"/>
                            
                            <!-- Connections -->
                            <line x1="0" y1="0" x2="0" y2="-8.8" stroke="url(#iconGrad)" stroke-width="1" opacity="0.7"/>
                            <line x1="0" y1="0" x2="8.8" y2="0" stroke="url(#iconGrad)" stroke-width="1" opacity="0.7"/>
                            <line x1="0" y1="0" x2="0" y2="8.8" stroke="url(#iconGrad)" stroke-width="1" opacity="0.7"/>
                            <line x1="0" y1="0" x2="-8.8" y2="0" stroke="url(#iconGrad)" stroke-width="1" opacity="0.7"/>
                            
                            <line x1="0" y1="0" x2="6.8" y2="-6.8" stroke="url(#iconGrad)" stroke-width="0.8" opacity="0.5"/>
                            <line x1="0" y1="0" x2="6.8" y2="6.8" stroke="url(#iconGrad)" stroke-width="0.8" opacity="0.5"/>
                            <line x1="0" y1="0" x2="-6.8" y2="6.8" stroke="url(#iconGrad)" stroke-width="0.8" opacity="0.5"/>
                            <line x1="0" y1="0" x2="-6.8" y2="-6.8" stroke="url(#iconGrad)" stroke-width="0.8" opacity="0.5"/>
                        </g>
                    </svg>