<svg xmlns="http://www.w3.org/2000/svg" width="32" height="32" viewBox="0 0 32 32" id="favicon-32">
                        <rect width="32" height="32" rx="6" fill="#e74c3c"/>
                        <g transform="translate(16,16)">
                            <!-- Central person -->
                            <circle cx="0" cy="0" r="2.5" fill="white"/>
                            <rect x="-1" y="2.5" width="2" height="4" rx="0.5" fill="white"/>
                            
                            <!-- Surrounding people - 8 posisi konsisten -->
                            <circle cx="0" cy="-10" r="1.8" fill="white" opacity="0.8"/>
                            <circle cx="7" cy="-7" r="1.8" fill="white" opacity="0.8"/>
                            <circle cx="10" cy="0" r="1.8" fill="white" opacity="0.8"/>
                            <circle cx="7" cy="7" r="1.8" fill="white" opacity="0.8"/>
                            <circle cx="0" cy="10" r="1.8" fill="white" opacity="0.8"/>
                            <circle cx="-7" cy="7" r="1.8" fill="white" opacity="0.8"/>
                            <circle cx="-10" cy="0" r="1.8" fill="white" opacity="0.8"/>
                            <circle cx="-7" cy="-7" r="1.8" fill="white" opacity="0.8"/>
                            
                            <!-- 8 garis konsisten - semua arah -->
                            <line x1="0" y1="0" x2="0" y2="-8" stroke="white" stroke-width="1" opacity="0.6"/>
                            <line x1="0" y1="0" x2="5.5" y2="-5.5" stroke="white" stroke-width="1" opacity="0.6"/>
                            <line x1="0" y1="0" x2="8" y2="0" stroke="white" stroke-width="1" opacity="0.6"/>
                            <line x1="0" y1="0" x2="5.5" y2="5.5" stroke="white" stroke-width="1" opacity="0.6"/>
                            <line x1="0" y1="0" x2="0" y2="8" stroke="white" stroke-width="1" opacity="0.6"/>
                            <line x1="0" y1="0" x2="-5.5" y2="5.5" stroke="white" stroke-width="1" opacity="0.6"/>
                            <line x1="0" y1="0" x2="-8" y2="0" stroke="white" stroke-width="1" opacity="0.6"/>
                            <line x1="0" y1="0" x2="-5.5" y2="-5.5" stroke="white" stroke-width="1" opacity="0.6"/>
                        </g>
                    </svg>